<mxfile host="app.diagrams.net" modified="2024-04-21T20:59:15.734Z" agent="Mozilla/5.0 (Macintosh; Intel Mac OS X 10_15_7) AppleWebKit/537.36 (KHTML, like Gecko) Chrome/123.0.0.0 Safari/537.36" version="24.2.7" etag="bvpbU0d0RA9nS_2SegrC" type="github">
  <diagram name="PÃ¡gina-1" id="AoO2FcaskEXp3UATJx1f">
    <mxGraphModel>
      <root>
        <mxCell id="0" />
        <mxCell id="1" parent="0" />
      </root>
    </mxGraphModel>
  </diagram>
</mxfile>
